<svg width="56" height="56" viewBox="0 0 56 56" xmlns="http://www.w3.org/2000/svg">
    <path d="M13.845 5.813v8.125l-2.684-2.685-.242.245c-8.987 9.296-8.891 24.117.287 33.296 7.369 7.369 18.375 8.883 27.24 4.543l1.65 3.369c-10.264 5.025-23.009 3.272-31.541-5.26C-2.17 36.72-2.185 19.342 8.509 8.6L5.72 5.813h8.125zm33.6 2.742c10.725 10.724 10.74 28.102.046 38.845l2.789 2.788h-8.125v-8.126l2.684 2.685.242-.245c8.987-9.296 8.891-24.117-.287-33.296-7.369-7.369-18.375-8.883-27.24-4.543l-1.65-3.369C26.169-1.73 38.914.022 47.446 8.554zM24.682 20.97v2.48H18.91l-.267 3.012.205-.124c.282-.156.604-.275.966-.357.452-.103.87-.154 1.253-.154.78 0 1.452.126 2.013.379.562.253 1.024.59 1.387 1.014.363.424.63.916.8 1.476.172.56.258 1.154.258 1.783 0 .82-.117 1.543-.35 2.172a4.303 4.303 0 0 1-.986 1.578 4.059 4.059 0 0 1-1.53.952 5.886 5.886 0 0 1-1.982.318c-1.603 0-2.845-.365-3.729-1.096-.883-.731-1.366-1.862-1.448-3.392h2.876l.027.213c.086.552.268.98.548 1.283.315.342.85.512 1.602.512.658 0 1.175-.194 1.551-.584.377-.389.565-1.034.565-1.936 0-.806-.178-1.397-.534-1.773-.356-.375-.91-.563-1.664-.563-.506 0-.938.082-1.294.246a2.8 2.8 0 0 0-.945.717h-2.424l.699-8.156h8.175zm5.855-.471 3.02 4.672 3.081-4.672h3.287l-4.684 7.008 5.259 7.623h-3.492l-3.554-5.328-3.41 5.328h-3.348l5.115-7.705-4.766-6.926h3.492z" fill="#00082F" fill-rule="evenodd"/>
</svg>
