<svg width="56" height="40" viewBox="0 0 56 40" xmlns="http://www.w3.org/2000/svg">
    <g fill="none" fill-rule="evenodd">
        <path d="M41.75 27.5a6.25 6.25 0 1 1 0 12.5 6.25 6.25 0 0 1 0-12.5zm-33.125 0a6.25 6.25 0 1 1 0 12.5 6.25 6.25 0 0 1 0-12.5zM4.25 0 43 3.75l-.673 5h4.423c1.295 0 3.152.769 3.698 3.082l.052.245a758.065 758.065 0 0 1 1.456 7.925l.106-.002 3.438 1.875-3.125 11.875h-2.5a8.125 8.125 0 0 0-16.246-.248l-.004.248H16.75A8.125 8.125 0 0 0 .7 31.95L4.25 0zm42.5 11.25h-4.76L40.812 20l8.642.001c-.255-1.44-.74-3.987-1.454-7.644-.143-.733-.674-1.107-1.25-1.107z" fill="#00082F"/>
        <path d="m8.387 19.979.521-3.8h3.939l.23-1.676H9.138l.302-2.201h4.187l.23-1.677H7.721l-1.284 9.354h1.95zm7.615 0 .482-3.511h1.832l1.088 3.51h2.107l-1.353-3.969c.553-.28.967-.624 1.241-1.035.275-.41.453-.917.536-1.52a3.2 3.2 0 0 0-.021-.988 1.908 1.908 0 0 0-.437-.917c-.233-.276-.575-.498-1.027-.669-.452-.17-1.045-.255-1.778-.255h-3.31l-1.283 9.354h1.923zm.705-5.136.357-2.607h1.348c.34 0 .617.033.83.099.214.065.376.157.486.275a.83.83 0 0 1 .213.406c.031.153.035.312.013.478a2.33 2.33 0 0 1-.141.55 1.108 1.108 0 0 1-.3.426 1.4 1.4 0 0 1-.516.275c-.21.066-.467.098-.772.098h-1.518zm12.367 5.136.424-1.664h-4.697l.316-2.306h4.161l.23-1.677h-4.16l.28-2.043h4.422l.229-1.664h-6.373l-1.283 9.354h6.45zm8.034 0 .424-1.664h-4.697l.316-2.306h4.161l.23-1.677h-4.16l.28-2.043h4.422l.228-1.664H31.94l-1.283 9.354h6.45z" fill="#FFF" fill-rule="nonzero"/>
    </g>
</svg>
