<?xml version="1.0" encoding="UTF-8"?>
<svg width="55px" height="52px" viewBox="0 0 55 52" version="1.1" xmlns="http://www.w3.org/2000/svg" xmlns:xlink="http://www.w3.org/1999/xlink">
    <!-- Generator: Sketch 63.1 (92452) - https://sketch.com -->
    <title>ICON - Referral</title>
    <desc>Created with Sketch.</desc>
    <g id="Smile---051321" stroke="none" stroke-width="1" fill="none" fill-rule="evenodd">
        <g id="ICON---Referral" fill-rule="nonzero">
            <path d="M47.38032,41.6 L49.6496,30.9192 L47.51344,30.46368 C45.323099,29.9979557 43.9246075,27.8452844 44.38928,25.65472 L44.84272,23.51856 L15.34208,17.24736 L14.88864,19.38352 C14.6650087,20.4358279 14.032476,21.356184 13.1302133,21.9420892 C12.2279505,22.5279943 11.1298793,22.7314459 10.0776,22.50768 L7.94144,22.05424 L5.67216,32.73504 L7.80832,33.18848 C8.86062789,33.4121113 9.78098401,34.044644 10.3668892,34.9469067 C10.9527943,35.8491695 11.1562459,36.9472407 10.93248,37.99952 L10.37088,40.64528 L39.86944,46.9144 L40.43104,44.27072 C40.6546713,43.2184121 41.287204,42.298056 42.1894667,41.7121508 C43.0917295,41.1262457 44.1898007,40.9227941 45.24208,41.14656 L47.3824,41.6 L47.38032,41.6 Z M46.73136,44.65136 L44.5952,44.19792 C44.3521821,44.1461601 44.0985561,44.1931502 43.8902111,44.3285354 C43.6818662,44.4639206 43.5359008,44.6765901 43.48448,44.91968 L42.92288,47.56336 L45.97424,48.21232 L46.73136,44.65136 L46.73136,44.65136 Z M50.29856,27.86576 L50.94752,24.8144 L47.89616,24.16544 L47.44064,26.3016 C47.3888801,26.5446179 47.4358702,26.7982439 47.5712554,27.0065889 C47.7066406,27.2149338 47.9193101,27.3608992 48.1624,27.41232 L50.29856,27.86576 L50.29856,27.86576 Z M7.31744,39.9984 L7.87904,37.35264 C7.98693578,36.847205 7.66476085,36.3499755 7.15936,36.24192 L5.0232,35.78848 L4.26608,39.34944 L7.31744,39.9984 L7.31744,39.9984 Z M12.29072,16.5984 L9.23936,15.9536 L8.5904,19.00288 L10.72656,19.4584 C10.9695779,19.5101599 11.2232039,19.4631698 11.4315489,19.3277846 C11.6398938,19.1923994 11.7858592,18.9797299 11.83728,18.73664 L12.29072,16.60048 L12.29072,16.5984 Z M8.3616,12.57568 L53.1232,22.0896 C53.5278382,22.1759284 53.8816085,22.4194655 54.1066831,22.7666342 C54.3317576,23.1138029 54.4096988,23.536164 54.32336,23.9408 L48.70112,50.388 C48.6152618,50.7930219 48.3719207,51.1473013 48.0246974,51.3728014 C47.677474,51.5983015 47.2548513,51.6765244 46.84992,51.59024 L2.09248,42.07424 C1.68784179,41.9879116 1.33407149,41.7443745 1.10899694,41.3972058 C0.883922389,41.0500371 0.805981172,40.627676 0.89232,40.22304 L6.5104,13.77792 C6.68923421,12.9354497 7.51695527,12.3972914 8.35952,12.57568 L8.3616,12.57568 Z M15.04464,10.0256 C14.6868037,10.8096234 13.7611434,11.1551163 12.97712,10.79728 C12.1930966,10.4394437 11.8476037,9.51378343 12.20544,8.72976 L15.2152,2.13824 C16.0264,0.47216 18.02112,-0.25376 19.67888,0.55744 L48.68656,14.7056 C49.2011264,14.9415683 49.5474814,15.4377753 49.5915573,16.0021484 C49.6356333,16.5665214 49.3705126,17.1104829 48.8988185,17.4234755 C48.4271245,17.736468 47.8228888,17.7693678 47.32,17.50944 L18.31024,3.36336 C18.22288,3.32176 18.08768,3.3696 18.03568,3.47152 L15.04464,10.02768 L15.04464,10.0256 Z" id="Shape" fill="#000C48"></path>
            <path d="M25.98544,39.71136 C23.259332,39.1321039 21.0493338,37.1424879 20.1879304,34.4919811 C19.3265269,31.8414742 19.9445859,28.9327517 21.8092904,26.861501 C23.6739949,24.7902503 26.502052,23.8711438 29.22816,24.4504 C31.9542679,25.0300277 34.1640679,27.019987 35.0251495,29.6706796 C35.8862312,32.3213722 35.2677758,35.2300947 33.4027495,37.3011596 C31.5377232,39.3722245 28.7094679,40.2909877 25.98336,39.71136 L25.98544,39.71136 Z M26.6344,36.65792 C28.2833396,37.0403542 30.0102728,36.5025786 31.1505498,35.2515685 C32.2908268,34.0005584 32.6667052,32.2313167 32.1335197,30.6247766 C31.6003342,29.0182365 30.2411958,27.8248197 28.5792,27.50384 C26.0746428,27.0201372 23.6440252,28.6312119 23.1139264,31.1263613 C22.5838277,33.6215107 24.1495178,36.0816078 26.6344,36.65792 L26.6344,36.65792 Z" id="Shape" fill="#2031BA"></path>
        </g>
    </g>
</svg>