<svg width="56" height="40" viewBox="0 0 56 40" xmlns="http://www.w3.org/2000/svg">
    <g fill="#00082F" fill-rule="evenodd">
        <path d="M.5 40c0-1.388.754-2.6 1.875-3.248V6.998a3.75 3.75 0 1 1 3.75 0l.001 29.754A3.749 3.749 0 0 1 8 40zM48 40c0-1.388.754-2.6 1.875-3.248V6.998a3.75 3.75 0 1 1 3.75 0l.001 29.754A3.749 3.749 0 0 1 55.5 40z"/>
        <path d="M28 20c8.382 0 15.882-5.417 22.5-16.25H53c-7.353 12.083-15.686 18.125-25 18.125S10.353 15.833 3 3.75h2.5C12.118 14.583 19.618 20 28 20z"/>
    </g>
</svg>
