<svg width="48" height="48" viewBox="0 0 48 48" xmlns="http://www.w3.org/2000/svg">
    <path d="M47.75.25v47.5H.25V.25h47.5zM11.5 36.5H2.75v8.75h8.75V36.5zm11.25 0H14v8.75h8.75V36.5zm11.25 0h-8.75v8.75H34V36.5zm11.25 0H36.5v8.75h8.75V36.5zM11.5 25.25H2.75V34h8.75v-8.75zm11.25 0H14V34h8.75v-8.75zm11.25 0h-8.75V34H34v-8.75zm11.25 0H36.5V34h8.75v-8.75zM11.5 14H2.75v8.75h8.75V14zm11.25 0H14v8.75h8.75V14zM34 14h-8.75v8.75H34V14zm11.25 0H36.5v8.75h8.75V14zM9.335 15.281l.884.884-2.21 2.21 2.21 2.21-.884.884-2.21-2.21-2.21 2.21-.884-.884 2.21-2.21-2.21-2.21.884-.884 2.21 2.21 2.21-2.21z" fill="#00082F" fill-rule="evenodd"/>
</svg>
