<svg width="56" height="40" viewBox="0 0 56 40" xmlns="http://www.w3.org/2000/svg">
    <g fill="none" fill-rule="evenodd">
        <path fill="#00082F" d="M.5 0h40l15 12.5v15L40.5 40H.5z"/>
        <g fill="#FFF" fill-rule="nonzero">
            <path d="m17.78 18.6.258-2.091h-4.869c.32-.298.62-.56.9-.789.28-.229.557-.457.831-.686.515-.457.958-.883 1.329-1.277a7.4 7.4 0 0 0 .917-1.174c.24-.389.42-.786.54-1.192.12-.405.18-.848.18-1.328 0-1.12-.343-2.006-1.028-2.657-.686-.652-1.692-.977-3.018-.977-.754 0-1.388.097-1.902.291a3.55 3.55 0 0 0-1.278.797 3.81 3.81 0 0 0-.797 1.166c-.194.44-.343.906-.445 1.397l2.331.274c.16-.72.403-1.208.729-1.465.325-.258.774-.386 1.345-.386.48 0 .86.157 1.14.471.28.315.42.717.42 1.209 0 .377-.06.723-.18 1.037-.12.314-.3.631-.54.951-.24.32-.54.652-.9.995-.36.343-.78.725-1.26 1.148-.491.435-.977.849-1.457 1.243-.48.394-.966.809-1.457 1.243v1.8h8.211zm6.155.309c1.44 0 2.557-.503 3.351-1.509.794-1.006 1.192-2.583 1.192-4.731 0-2.138-.392-3.712-1.175-4.723-.783-1.012-1.883-1.517-3.3-1.517-.697 0-1.325.122-1.885.368a3.62 3.62 0 0 0-1.432 1.14c-.394.514-.697 1.163-.908 1.946-.212.783-.318 1.711-.318 2.786 0 2.148.392 3.725 1.175 4.731.783 1.006 1.883 1.509 3.3 1.509zm.017-2.092c-.377 0-.692-.094-.943-.283-.251-.188-.454-.463-.609-.823a5.027 5.027 0 0 1-.334-1.302 13.14 13.14 0 0 1-.103-1.74c0-.652.035-1.232.103-1.74.069-.509.18-.943.334-1.303.155-.36.358-.635.609-.823.251-.189.566-.283.943-.283s.694.094.951.283c.257.188.466.463.626.823.16.36.274.794.343 1.303.068.508.103 1.088.103 1.74 0 .651-.035 1.231-.103 1.74a4.795 4.795 0 0 1-.343 1.302c-.16.36-.369.635-.626.823-.257.189-.574.283-.951.283zM31.68 10.687c.228 0 .44-.036.634-.107.194-.072.363-.182.506-.33a1.48 1.48 0 0 0 .33-.579 2.74 2.74 0 0 0 .115-.844c0-.326-.04-.607-.12-.844a1.641 1.641 0 0 0-.33-.587 1.29 1.29 0 0 0-.501-.343 1.762 1.762 0 0 0-.634-.112c-.223 0-.43.037-.622.112a1.334 1.334 0 0 0-.501.343c-.143.154-.256.35-.339.587a2.565 2.565 0 0 0-.124.844c0 .326.04.607.12.844.08.237.191.43.334.579.143.148.312.258.506.33a1.8 1.8 0 0 0 .626.107zm1.397 2.323 2.983-5.923h-1.158L31.92 13.01h1.157zM31.68 9.847a.506.506 0 0 1-.433-.219c-.106-.145-.159-.412-.159-.801 0-.389.053-.659.159-.81a.5.5 0 0 1 .433-.227c.188 0 .335.076.441.227.106.151.159.421.159.81 0 .389-.053.656-.159.801a.515.515 0 0 1-.441.219zm4.628 3.309c.229 0 .44-.036.634-.108.195-.071.363-.181.506-.33a1.48 1.48 0 0 0 .33-.578 2.74 2.74 0 0 0 .116-.844c0-.326-.04-.608-.12-.845a1.641 1.641 0 0 0-.33-.587 1.29 1.29 0 0 0-.502-.343 1.762 1.762 0 0 0-.634-.111c-.223 0-.43.037-.621.111a1.334 1.334 0 0 0-.502.343c-.143.154-.255.35-.338.587a2.565 2.565 0 0 0-.125.845c0 .325.04.607.12.844.08.237.192.43.335.578.143.149.311.259.505.33a1.8 1.8 0 0 0 .626.108zm0-.84a.506.506 0 0 1-.433-.219c-.105-.146-.158-.413-.158-.801 0-.389.053-.659.158-.81a.5.5 0 0 1 .433-.228c.189 0 .336.076.442.228.105.151.158.421.158.81 0 .388-.053.655-.158.801a.515.515 0 0 1-.442.219zM13.229 33.256c.771 0 1.457-.124 2.057-.371a4.089 4.089 0 0 0 1.521-1.072 4.695 4.695 0 0 0 .943-1.686c.214-.657.321-1.4.321-2.228 0-.829-.11-1.572-.328-2.229a4.78 4.78 0 0 0-.95-1.685 4.089 4.089 0 0 0-1.522-1.072c-.6-.247-1.28-.371-2.042-.371-.753 0-1.429.124-2.029.371a4.22 4.22 0 0 0-1.536 1.072 4.749 4.749 0 0 0-.971 1.685c-.224.657-.336 1.4-.336 2.229 0 .828.112 1.571.336 2.228.224.658.545 1.22.964 1.686.42.467.929.824 1.529 1.072.6.247 1.28.371 2.043.371zm-.015-1.829c-.895 0-1.562-.304-2-.914-.438-.61-.657-1.48-.657-2.614 0-1.124.22-1.993.657-2.607.438-.615 1.105-.922 2-.922.896 0 1.562.307 2 .922.438.614.657 1.483.657 2.607 0 1.133-.219 2.005-.657 2.614-.438.61-1.104.914-2 .914zM21.957 33v-4.143h4.3v-1.829h-4.3v-2.4h4.572V22.8h-6.7v10.2h2.128zm8.343 0v-4.143h4.3v-1.829h-4.3v-2.4h4.571V22.8h-6.7v10.2H30.3z"/>
        </g>
    </g>
</svg>
